Coordinates
version=1
nRows=8
nColumns=40
inDegrees=yes

Units are S.I. units (second, meters, Newtons, ...)
If the header above contains a line with 'inDegrees', this indicates whether rotational values are in degrees (yes) or radians (no).

endheader
time	pelvis_tilt	pelvis_list	pelvis_rotation	pelvis_tx	pelvis_ty	pelvis_tz	hip_flexion_r	hip_adduction_r	hip_rotation_r	knee_angle_r	knee_angle_r_beta	ankle_angle_r	subtalar_angle_r	mtp_angle_r	hip_flexion_l	hip_adduction_l	hip_rotation_l	knee_angle_l	knee_angle_l_beta	ankle_angle_l	subtalar_angle_l	mtp_angle_l	lumbar_extension	lumbar_bending	lumbar_rotation	arm_flex_r	arm_add_r	arm_rot_r	elbow_flex_r	pro_sup_r	wrist_flex_r	wrist_dev_r	arm_flex_l	arm_add_l	arm_rot_l	elbow_flex_l	pro_sup_l	wrist_flex_l	wrist_dev_l
      6.99000000	     44.47656504	      0.80661509	   -179.04147163	      0.39627555	      0.75753588	     -0.59222673	     82.31276778	    -11.69713335	      2.41107448	     37.67041726	      0.65747281	      3.52080185	      0.00000000	      0.00000000	     83.48232108	    -12.26017654	     -0.99136506	     39.53713071	      0.69005311	      2.99791246	      0.00000000	      0.00000000	    -45.23744374	     -2.72557711	      1.90000742	     68.50304764	    -21.43773181	     57.32368198	     23.54459647	     66.99849259	      0.00000000	      0.00000000	     71.59165291	     -1.98963964	      7.39572722	     13.95002777	     24.09724304	      0.00000000	      0.00000000
      6.99500000	     44.51919123	      0.79876335	   -178.98932964	      0.39632702	      0.75822994	     -0.59180280	     82.24946929	    -11.83452610	      2.18460506	     37.51036689	      0.65467941	      3.45756943	      0.00000000	      0.00000000	     83.40555213	    -12.19486598	     -1.11983140	     39.34521120	      0.68670348	      2.93513393	      0.00000000	      0.00000000	    -45.16981149	     -2.64735480	      1.84879566	     68.42728346	    -21.42487173	     57.33083601	     23.53731226	     67.00793227	      0.00000000	      0.00000000	     71.54622714	     -1.92170048	      7.40386651	     13.94633655	     24.08120403	      0.00000000	      0.00000000
      7.00000000	     44.55064188	      0.82514251	   -179.01588667	      0.39636434	      0.75914450	     -0.59152830	     82.06723598	    -11.82909122	      2.04696761	     37.13681755	      0.64815974	      3.28759916	      0.00000000	      0.00000000	     83.23249231	    -12.20116532	     -1.18421792	     38.97233341	      0.68019554	      2.77716762	      0.00000000	      0.00000000	    -45.14903809	     -2.58788365	      1.84454840	     68.40418690	    -21.39735083	     57.32565891	     23.54936090	     67.02193381	      0.00000000	      0.00000000	     71.46059567	     -1.99921062	      7.39520303	     13.88775249	     24.04978242	      0.00000000	      0.00000000
      7.00500000	     44.44579935	      0.79158665	   -179.02236864	      0.39645327	      0.76037423	     -0.59124408	     81.64034383	    -11.81497053	      2.16209967	     36.49567283	      0.63696965	      2.78273890	      0.00000000	      0.00000000	     82.88709073	    -12.15428869	     -1.23730802	     38.55507203	      0.67291295	      2.37412084	      0.00000000	      0.00000000	    -45.30106235	     -2.57073110	      1.86356097	     68.46298384	    -21.42993452	     57.27525665	     23.49373373	     67.04994840	      0.00000000	      0.00000000	     71.50623301	     -1.91051847	      7.38494509	     14.01810217	     23.97306343	      0.00000000	      0.00000000
      7.01000000	     44.47363280	      0.78659838	   -178.95892929	      0.39652561	      0.76104025	     -0.59086022	     81.57821046	    -11.94641308	      1.98209589	     36.37117143	      0.63479669	      2.74560935	      0.00000000	      0.00000000	     82.80815030	    -12.07721088	     -1.32778270	     38.38638491	      0.66996880	      2.32954408	      0.00000000	      0.00000000	    -45.25399491	     -2.48979139	      1.77647883	     68.41348654	    -21.40628890	     57.28598960	     23.50318424	     67.05832986	      0.00000000	      0.00000000	     71.38583890	     -1.96205423	      7.37920974	     13.93259540	     23.95224385	      0.00000000	      0.00000000
      7.01500000	     44.50088522	      0.81752748	   -178.96360104	      0.39650537	      0.76189797	     -0.59058964	     81.41135047	    -11.95567259	      1.85816304	     36.05563654	      0.62928957	      2.63093794	      0.00000000	      0.00000000	     82.64737857	    -12.07588735	     -1.40776290	     38.01639473	      0.66351126	      2.20730926	      0.00000000	      0.00000000	    -45.22037566	     -2.41637229	      1.74903248	     68.36267995	    -21.33073169	     57.30844152	     23.51653806	     67.07166318	      0.00000000	      0.00000000	     71.33963685	     -2.02281964	      7.36873097	     13.90545216	     23.92695288	      0.00000000	      0.00000000
      7.02000000	     44.40032145	      0.79794822	   -178.97211460	      0.39658808	      0.76305554	     -0.59031301	     81.00414431	    -11.91622148	      2.00094005	     35.44808913	      0.61868587	      2.25198781	      0.00000000	      0.00000000	     82.31405707	    -12.02926295	     -1.42540856	     37.60378046	      0.65630978	      1.88135796	      0.00000000	      0.00000000	    -45.36836892	     -2.39183199	      1.72180388	     68.45021571	    -21.31183117	     57.31468353	     23.45321664	     67.08741316	      0.00000000	      0.00000000	     71.35556383	     -2.03620822	      7.33752484	     13.98398251	     23.87450813	      0.00000000	      0.00000000
      7.02500000	     44.39799507	      0.78257639	   -178.89912210	      0.39661630	      0.76369036	     -0.58991918	     80.92052789	    -12.05363326	      1.85475443	     35.34576163	      0.61689992	      2.19746962	      0.00000000	      0.00000000	     82.22087083	    -11.93759678	     -1.53365048	     37.46761707	      0.65393328	      1.82020740	      0.00000000	      0.00000000	    -45.32969417	     -2.31704079	      1.64104912	     68.36628019	    -21.30344152	     57.34065607	     23.43970769	     67.09564225	      0.00000000	      0.00000000	     71.24823679	     -2.02549868	      7.32918108	     13.93999581	     23.85782137	      0.00000000	      0.00000000
